<svg xmlns="http://www.w3.org/2000/svg" xmlns:xlink="http://www.w3.org/1999/xlink" width="350" zoomAndPan="magnify" viewBox="0 0 262.5 74.999997" height="100" preserveAspectRatio="xMidYMid meet" version="1.0"><defs><g/><clipPath id="2c81fb951a"><path d="M 25 3.304688 L 64 3.304688 L 64 51.929688 L 25 51.929688 Z M 25 3.304688 " clip-rule="nonzero"/></clipPath><clipPath id="c52ea9a830"><path d="M 1.191406 12 L 38 12 L 38 51.929688 L 1.191406 51.929688 Z M 1.191406 12 " clip-rule="nonzero"/></clipPath><clipPath id="e258370e60"><path d="M 11 36 L 30 36 L 30 55 L 11 55 Z M 11 36 " clip-rule="nonzero"/></clipPath><clipPath id="9132f8bc6b"><path d="M 15.652344 33.722656 L 32.035156 41.097656 L 24.660156 57.480469 L 8.277344 50.105469 Z M 15.652344 33.722656 " clip-rule="nonzero"/></clipPath><clipPath id="b1b9686273"><path d="M 15.652344 33.722656 L 32.035156 41.097656 L 24.660156 57.480469 L 8.277344 50.105469 Z M 15.652344 33.722656 " clip-rule="nonzero"/></clipPath><clipPath id="e43869aa27"><path d="M 14 39.097656 L 28 39.097656 L 28 53 L 14 53 Z M 14 39.097656 " clip-rule="nonzero"/></clipPath><clipPath id="1306c56287"><path d="M 11.820312 42 L 33.527344 42 L 33.527344 72 L 11.820312 72 Z M 11.820312 42 " clip-rule="nonzero"/></clipPath></defs><g clip-path="url(#2c81fb951a)"><path fill="#77bd20" d="M 55.007812 21.03125 C 56.652344 21.03125 57.992188 22.371094 57.992188 24.015625 C 57.992188 25.660156 56.652344 27 55.007812 27 C 53.363281 27 52.023438 25.660156 52.023438 24.015625 C 52.023438 22.371094 53.351562 21.03125 55.007812 21.03125 M 44.796875 21.03125 C 46.441406 21.03125 47.78125 22.371094 47.78125 24.015625 C 47.78125 25.660156 46.441406 27 44.796875 27 C 43.148438 27 41.808594 25.660156 41.808594 24.015625 C 41.808594 22.371094 43.148438 21.03125 44.796875 21.03125 Z M 63.632812 23.476562 C 63.632812 12.320312 54.585938 3.273438 43.433594 3.273438 C 40.175781 3.273438 37.109375 4.035156 34.394531 5.398438 C 33.078125 6.058594 31.855469 6.855469 30.71875 7.773438 C 28.824219 9.3125 27.203125 11.195312 25.96875 13.308594 C 34.535156 15.414062 40.882812 23.132812 40.882812 32.347656 C 40.882812 36.226562 39.753906 39.847656 37.816406 42.890625 C 39.601562 43.410156 41.480469 43.691406 43.433594 43.691406 L 43.433594 51.472656 L 49.273438 46.089844 C 50.117188 45.324219 50.964844 44.546875 51.800781 43.75 C 57.898438 38.015625 63.632812 31.46875 63.632812 23.476562 Z M 63.632812 23.476562 " fill-opacity="1" fill-rule="evenodd"/></g><path fill="#1a7727" d="M 34.59375 21.03125 C 36.238281 21.03125 37.578125 22.371094 37.578125 24.015625 C 37.578125 25.660156 36.238281 27 34.59375 27 C 32.949219 27 31.609375 25.660156 31.609375 24.015625 C 31.609375 22.371094 32.949219 21.03125 34.59375 21.03125 M 25.96875 13.308594 C 24.230469 16.292969 23.230469 19.773438 23.230469 23.476562 C 23.230469 32.679688 29.390625 40.457031 37.816406 42.890625 C 39.753906 39.847656 40.882812 36.226562 40.882812 32.347656 C 40.882812 23.132812 34.523438 15.414062 25.96875 13.308594 Z M 25.96875 13.308594 " fill-opacity="1" fill-rule="evenodd"/><g clip-path="url(#c52ea9a830)"><path fill="#39a650" d="M 23.21875 23.476562 C 23.21875 19.773438 24.21875 16.292969 25.957031 13.308594 C 24.453125 12.945312 22.878906 12.746094 21.269531 12.746094 C 10.445312 12.746094 1.667969 21.523438 1.667969 32.347656 C 1.667969 43.171875 10.445312 51.953125 21.269531 51.953125 C 28.214844 51.953125 34.324219 48.332031 37.804688 42.878906 C 29.390625 40.457031 23.21875 32.691406 23.21875 23.476562 " fill-opacity="1" fill-rule="evenodd"/></g><g clip-path="url(#e258370e60)"><g clip-path="url(#9132f8bc6b)"><g clip-path="url(#b1b9686273)"><path fill="#ffffff" d="M 23.890625 37.429688 C 19.347656 35.386719 13.988281 37.417969 11.941406 41.960938 C 9.898438 46.503906 11.929688 51.863281 16.472656 53.910156 C 21.015625 55.953125 26.375 53.921875 28.421875 49.378906 C 30.464844 44.835938 28.433594 39.476562 23.890625 37.429688 Z M 16.96875 52.8125 C 13.03125 51.039062 11.269531 46.394531 13.042969 42.457031 C 14.8125 38.519531 19.460938 36.757812 23.398438 38.53125 C 27.335938 40.304688 29.09375 44.949219 27.324219 48.886719 C 25.550781 52.824219 20.902344 54.582031 16.96875 52.8125 Z M 16.96875 52.8125 " fill-opacity="1" fill-rule="nonzero"/></g></g></g><g clip-path="url(#e43869aa27)"><path fill="#ffffff" d="M 20.882812 52.097656 C 17.300781 52.097656 14.390625 49.183594 14.390625 45.601562 C 14.390625 42.023438 17.300781 39.109375 20.882812 39.109375 C 24.464844 39.109375 27.378906 42.023438 27.378906 45.601562 C 27.378906 49.183594 24.464844 52.097656 20.882812 52.097656 M 20.882812 40.425781 C 18.027344 40.425781 15.707031 42.75 15.707031 45.601562 C 15.707031 48.460938 18.027344 50.78125 20.882812 50.78125 C 23.738281 50.78125 26.0625 48.460938 26.0625 45.601562 C 26.0625 42.75 23.738281 40.425781 20.882812 40.425781 " fill-opacity="1" fill-rule="nonzero"/></g><path fill="#ffffff" d="M 20.882812 49.78125 C 18.574219 49.78125 16.703125 47.910156 16.703125 45.601562 C 16.703125 43.296875 18.574219 41.425781 20.882812 41.425781 C 23.191406 41.425781 25.0625 43.296875 25.0625 45.601562 C 25.0625 47.910156 23.191406 49.78125 20.882812 49.78125 " fill-opacity="1" fill-rule="nonzero"/><g clip-path="url(#1306c56287)"><path fill="#1a7727" d="M 14.285156 55.882812 C 14.085938 55.882812 13.890625 55.941406 13.726562 56.054688 L 13.398438 56.277344 C 13.179688 56.429688 13.03125 56.652344 12.980469 56.914062 C 12.929688 57.175781 12.988281 57.441406 13.136719 57.660156 C 13.164062 57.699219 13.183594 57.738281 13.195312 57.78125 C 13.242188 57.90625 17.78125 70.175781 25.03125 70.582031 C 25.226562 70.59375 25.425781 70.601562 25.617188 70.601562 C 27.5625 70.601562 29.304688 70.027344 30.527344 68.988281 C 31.683594 68.007812 32.320312 66.667969 32.320312 65.21875 C 32.320312 65.136719 32.316406 65.058594 32.316406 64.976562 C 32.3125 64.953125 32.316406 64.929688 32.316406 64.90625 C 32.320312 64.878906 32.320312 64.847656 32.320312 64.820312 L 32.320312 53.039062 C 32.320312 52.492188 31.875 52.046875 31.328125 52.046875 L 30.929688 52.046875 C 30.382812 52.046875 29.933594 52.492188 29.933594 53.039062 C 29.933594 53.339844 29.691406 53.582031 29.394531 53.582031 C 29.09375 53.582031 28.851562 53.339844 28.851562 53.039062 C 28.851562 52.492188 28.40625 52.046875 27.855469 52.046875 L 27.460938 52.046875 C 26.914062 52.046875 26.464844 52.492188 26.464844 53.039062 C 26.464844 53.339844 26.222656 53.582031 25.921875 53.582031 C 25.625 53.582031 25.382812 53.339844 25.382812 53.039062 C 25.382812 52.492188 24.9375 52.046875 24.386719 52.046875 L 23.992188 52.046875 C 23.441406 52.046875 22.996094 52.492188 22.996094 53.039062 C 22.996094 53.339844 22.753906 53.582031 22.457031 53.582031 C 22.15625 53.582031 21.910156 53.339844 21.910156 53.039062 L 21.910156 44.851562 C 21.910156 44.304688 21.46875 43.859375 20.917969 43.859375 L 20.519531 43.859375 C 19.972656 43.859375 19.527344 44.304688 19.527344 44.851562 L 19.527344 61.046875 C 19.527344 61.285156 19.371094 61.496094 19.144531 61.566406 C 18.917969 61.636719 18.671875 61.546875 18.539062 61.351562 L 15.109375 56.316406 C 14.921875 56.042969 14.613281 55.882812 14.285156 55.882812 Z M 25.617188 71.683594 C 25.40625 71.683594 25.1875 71.675781 24.96875 71.664062 C 21.644531 71.480469 18.371094 69.0625 15.503906 64.679688 C 13.511719 61.636719 12.375 58.683594 12.199219 58.210938 C 11.917969 57.765625 11.816406 57.234375 11.914062 56.714844 C 12.019531 56.167969 12.328125 55.695312 12.789062 55.382812 L 13.113281 55.160156 C 13.460938 54.921875 13.867188 54.800781 14.285156 54.800781 C 14.972656 54.800781 15.617188 55.136719 16.003906 55.707031 L 18.441406 59.289062 L 18.441406 44.851562 C 18.441406 43.707031 19.375 42.773438 20.519531 42.773438 L 20.917969 42.773438 C 22.066406 42.773438 22.996094 43.707031 22.996094 44.851562 L 22.996094 51.214844 C 23.292969 51.050781 23.632812 50.960938 23.992188 50.960938 L 24.386719 50.960938 C 24.996094 50.960938 25.542969 51.222656 25.921875 51.640625 C 26.304688 51.222656 26.851562 50.960938 27.460938 50.960938 L 27.855469 50.960938 C 28.464844 50.960938 29.015625 51.222656 29.394531 51.640625 C 29.773438 51.222656 30.320312 50.960938 30.929688 50.960938 L 31.328125 50.960938 C 32.472656 50.960938 33.40625 51.894531 33.40625 53.039062 L 33.40625 64.820312 C 33.40625 64.871094 33.402344 64.921875 33.398438 64.964844 C 33.402344 65.050781 33.40625 65.132812 33.40625 65.21875 C 33.40625 66.992188 32.632812 68.625 31.230469 69.816406 C 29.808594 71.019531 27.816406 71.683594 25.617188 71.683594 " fill-opacity="1" fill-rule="nonzero"/></g><path fill="#77bd20" d="M 14.285156 55.882812 C 14.085938 55.882812 13.890625 55.941406 13.726562 56.054688 L 13.398438 56.277344 C 13.179688 56.429688 13.03125 56.652344 12.980469 56.914062 C 12.929688 57.175781 12.988281 57.441406 13.136719 57.660156 C 13.164062 57.699219 13.183594 57.738281 13.195312 57.78125 C 13.242188 57.90625 17.78125 70.175781 25.03125 70.582031 C 25.226562 70.59375 25.425781 70.601562 25.617188 70.601562 C 27.5625 70.601562 29.304688 70.027344 30.527344 68.988281 C 31.683594 68.007812 32.320312 66.667969 32.320312 65.21875 C 32.320312 65.136719 32.316406 65.058594 32.316406 64.976562 C 32.3125 64.953125 32.316406 64.929688 32.316406 64.90625 C 32.320312 64.878906 32.320312 64.847656 32.320312 64.820312 L 32.320312 53.039062 C 32.320312 52.492188 31.875 52.046875 31.328125 52.046875 L 30.929688 52.046875 C 30.382812 52.046875 29.933594 52.492188 29.933594 53.039062 C 29.933594 53.339844 29.691406 53.582031 29.394531 53.582031 C 29.09375 53.582031 28.851562 53.339844 28.851562 53.039062 C 28.851562 52.492188 28.40625 52.046875 27.855469 52.046875 L 27.460938 52.046875 C 26.914062 52.046875 26.464844 52.492188 26.464844 53.039062 C 26.464844 53.339844 26.222656 53.582031 25.921875 53.582031 C 25.625 53.582031 25.382812 53.339844 25.382812 53.039062 C 25.382812 52.492188 24.9375 52.046875 24.386719 52.046875 L 23.992188 52.046875 C 23.441406 52.046875 22.996094 52.492188 22.996094 53.039062 C 22.996094 53.339844 22.753906 53.582031 22.457031 53.582031 C 22.15625 53.582031 21.910156 53.339844 21.910156 53.039062 L 21.910156 44.851562 C 21.910156 44.304688 21.46875 43.859375 20.917969 43.859375 L 20.519531 43.859375 C 19.972656 43.859375 19.527344 44.304688 19.527344 44.851562 L 19.527344 61.046875 C 19.527344 61.285156 19.371094 61.496094 19.144531 61.566406 C 18.917969 61.636719 18.671875 61.546875 18.539062 61.351562 L 15.109375 56.316406 C 14.921875 56.042969 14.613281 55.882812 14.285156 55.882812 " fill-opacity="1" fill-rule="nonzero"/><g fill="#1a7727" fill-opacity="1"><g transform="translate(65.43063, 43.77289)"><g><path d="M 7.875 -13.96875 C 8.90625 -13.96875 9.914062 -13.753906 10.90625 -13.328125 C 11.90625 -12.910156 12.753906 -12.34375 13.453125 -11.625 L 11.40625 -9.21875 C 10.957031 -9.769531 10.421875 -10.207031 9.796875 -10.53125 C 9.171875 -10.851562 8.550781 -11.015625 7.9375 -11.015625 C 6.84375 -11.015625 5.925781 -10.628906 5.1875 -9.859375 C 4.445312 -9.085938 4.078125 -8.132812 4.078125 -7 C 4.078125 -5.84375 4.445312 -4.875 5.1875 -4.09375 C 5.925781 -3.3125 6.84375 -2.921875 7.9375 -2.921875 C 8.507812 -2.921875 9.109375 -3.066406 9.734375 -3.359375 C 10.367188 -3.648438 10.925781 -4.046875 11.40625 -4.546875 L 13.46875 -2.375 C 12.71875 -1.601562 11.832031 -0.988281 10.8125 -0.53125 C 9.789062 -0.0703125 8.769531 0.15625 7.75 0.15625 C 5.664062 0.15625 3.929688 -0.519531 2.546875 -1.875 C 1.160156 -3.238281 0.46875 -4.9375 0.46875 -6.96875 C 0.46875 -8.957031 1.171875 -10.617188 2.578125 -11.953125 C 3.992188 -13.296875 5.757812 -13.96875 7.875 -13.96875 Z M 7.875 -13.96875 "/></g></g></g><g fill="#1a7727" fill-opacity="1"><g transform="translate(79.117466, 43.77289)"><g><path d="M 4.890625 0 L 1.46875 0 L 1.46875 -14.671875 L 4.890625 -14.671875 Z M 4.890625 0 "/></g></g></g><g fill="#1a7727" fill-opacity="1"><g transform="translate(85.466422, 43.77289)"><g><path d="M 1.78125 -15.015625 C 2.125 -15.359375 2.554688 -15.53125 3.078125 -15.53125 C 3.609375 -15.53125 4.039062 -15.359375 4.375 -15.015625 C 4.71875 -14.679688 4.890625 -14.25 4.890625 -13.71875 C 4.890625 -13.195312 4.71875 -12.765625 4.375 -12.421875 C 4.039062 -12.078125 3.609375 -11.90625 3.078125 -11.90625 C 2.554688 -11.90625 2.125 -12.078125 1.78125 -12.421875 C 1.445312 -12.765625 1.28125 -13.195312 1.28125 -13.71875 C 1.28125 -14.25 1.445312 -14.679688 1.78125 -15.015625 Z M 4.765625 0 L 1.359375 0 L 1.359375 -10.65625 L 4.765625 -10.65625 Z M 4.765625 0 "/></g></g></g><g fill="#1a7727" fill-opacity="1"><g transform="translate(91.617589, 43.77289)"><g><path d="M 6.015625 -10.78125 C 7.066406 -10.78125 8.003906 -10.570312 8.828125 -10.15625 C 9.648438 -9.738281 10.296875 -9.148438 10.765625 -8.390625 L 8.3125 -6.90625 C 7.78125 -7.644531 7.0625 -8.015625 6.15625 -8.015625 C 5.488281 -8.015625 4.945312 -7.765625 4.53125 -7.265625 C 4.125 -6.773438 3.921875 -6.128906 3.921875 -5.328125 C 3.921875 -4.503906 4.125 -3.84375 4.53125 -3.34375 C 4.9375 -2.851562 5.476562 -2.609375 6.15625 -2.609375 C 7.15625 -2.609375 7.878906 -3.007812 8.328125 -3.8125 L 10.828125 -2.359375 C 10.390625 -1.566406 9.75 -0.953125 8.90625 -0.515625 C 8.070312 -0.0859375 7.09375 0.125 5.96875 0.125 C 4.320312 0.125 2.992188 -0.375 1.984375 -1.375 C 0.972656 -2.375 0.46875 -3.679688 0.46875 -5.296875 C 0.46875 -6.929688 0.976562 -8.253906 2 -9.265625 C 3.03125 -10.273438 4.367188 -10.78125 6.015625 -10.78125 Z M 6.015625 -10.78125 "/></g></g></g><g fill="#1a7727" fill-opacity="1"><g transform="translate(102.733199, 43.77289)"><g><path d="M 6.03125 -4.109375 L 4.890625 -2.90625 L 4.890625 0 L 1.46875 0 L 1.46875 -14.671875 L 4.890625 -14.671875 L 4.890625 -6.921875 L 8.40625 -10.65625 L 12.28125 -10.65625 L 8.375 -6.5625 L 12.40625 0 L 8.34375 0 Z M 6.03125 -4.109375 "/></g></g></g><g fill="#000000" fill-opacity="1"><g transform="translate(117.351463, 43.77289)"><g><path d="M 6.046875 -14 C 7.429688 -14 8.566406 -13.664062 9.453125 -13 C 10.335938 -12.332031 10.78125 -11.460938 10.78125 -10.390625 C 10.78125 -9.097656 9.910156 -7.5625 8.171875 -5.78125 L 5.359375 -2.796875 L 11.203125 -2.796875 L 11.203125 0 L 0.828125 0 L 0.828125 -2.28125 L 5.78125 -7.515625 C 6.65625 -8.441406 7.09375 -9.234375 7.09375 -9.890625 C 7.09375 -10.285156 6.953125 -10.59375 6.671875 -10.8125 C 6.398438 -11.039062 6.019531 -11.15625 5.53125 -11.15625 C 4.382812 -11.15625 3.128906 -10.566406 1.765625 -9.390625 L 0.4375 -11.921875 C 2.28125 -13.304688 4.148438 -14 6.046875 -14 Z M 6.046875 -14 "/></g></g></g><g fill="#000000" fill-opacity="1"><g transform="translate(129.218663, 43.77289)"><g><path d="M 10.578125 -7.046875 L 13.625 -7.046875 L 13.625 -1.640625 C 12.875 -1.109375 11.96875 -0.675781 10.90625 -0.34375 C 9.84375 -0.0078125 8.832031 0.15625 7.875 0.15625 C 5.757812 0.15625 3.992188 -0.515625 2.578125 -1.859375 C 1.171875 -3.210938 0.46875 -4.898438 0.46875 -6.921875 C 0.46875 -8.929688 1.191406 -10.609375 2.640625 -11.953125 C 4.097656 -13.296875 5.921875 -13.96875 8.109375 -13.96875 C 9.140625 -13.96875 10.160156 -13.78125 11.171875 -13.40625 C 12.191406 -13.039062 13.054688 -12.539062 13.765625 -11.90625 L 11.796875 -9.515625 C 11.285156 -9.972656 10.703125 -10.335938 10.046875 -10.609375 C 9.390625 -10.878906 8.738281 -11.015625 8.09375 -11.015625 C 6.957031 -11.015625 6.003906 -10.625 5.234375 -9.84375 C 4.460938 -9.0625 4.078125 -8.085938 4.078125 -6.921875 C 4.078125 -5.742188 4.460938 -4.757812 5.234375 -3.96875 C 6.015625 -3.1875 6.976562 -2.796875 8.125 -2.796875 C 8.863281 -2.796875 9.679688 -3.019531 10.578125 -3.46875 Z M 10.578125 -7.046875 "/></g></g></g><g fill="#000000" fill-opacity="1"><g transform="translate(143.914216, 43.77289)"><g><path d="M 6.3125 -10.78125 C 8.050781 -10.78125 9.453125 -10.28125 10.515625 -9.28125 C 11.585938 -8.289062 12.125 -6.976562 12.125 -5.34375 C 12.125 -3.707031 11.585938 -2.382812 10.515625 -1.375 C 9.453125 -0.375 8.050781 0.125 6.3125 0.125 C 4.550781 0.125 3.132812 -0.375 2.0625 -1.375 C 1 -2.382812 0.46875 -3.707031 0.46875 -5.34375 C 0.46875 -6.976562 1 -8.289062 2.0625 -9.28125 C 3.132812 -10.28125 4.550781 -10.78125 6.3125 -10.78125 Z M 6.3125 -8.078125 C 5.59375 -8.078125 5.015625 -7.816406 4.578125 -7.296875 C 4.140625 -6.785156 3.921875 -6.117188 3.921875 -5.296875 C 3.921875 -4.472656 4.140625 -3.804688 4.578125 -3.296875 C 5.015625 -2.785156 5.59375 -2.53125 6.3125 -2.53125 C 7.007812 -2.53125 7.578125 -2.785156 8.015625 -3.296875 C 8.460938 -3.804688 8.6875 -4.472656 8.6875 -5.296875 C 8.6875 -6.117188 8.460938 -6.785156 8.015625 -7.296875 C 7.578125 -7.816406 7.007812 -8.078125 6.3125 -8.078125 Z M 6.3125 -8.078125 "/></g></g></g></svg>