<svg xmlns="http://www.w3.org/2000/svg" xmlns:xlink="http://www.w3.org/1999/xlink" width="500" zoomAndPan="magnify" viewBox="0 0 375 374.999991" height="500" preserveAspectRatio="xMidYMid meet" version="1.0"><defs><g/><clipPath id="eb24ac9eae"><path d="M 89 131.773438 L 155.808594 131.773438 L 155.808594 216 L 89 216 Z M 89 131.773438 " clip-rule="nonzero"/></clipPath><clipPath id="ffeaebb739"><path d="M 46.140625 148 L 110 148 L 110 216.542969 L 46.140625 216.542969 Z M 46.140625 148 " clip-rule="nonzero"/></clipPath><clipPath id="b8b7caa010"><path d="M 63 189 L 95 189 L 95 222 L 63 222 Z M 63 189 " clip-rule="nonzero"/></clipPath><clipPath id="bc171caea5"><path d="M 71.34375 184.789062 L 100.148438 197.757812 L 87.179688 226.5625 L 58.378906 213.59375 Z M 71.34375 184.789062 " clip-rule="nonzero"/></clipPath><clipPath id="be75b4d090"><path d="M 71.34375 184.789062 L 100.148438 197.757812 L 87.179688 226.5625 L 58.378906 213.59375 Z M 71.34375 184.789062 " clip-rule="nonzero"/></clipPath><clipPath id="e12f0e07d6"><path d="M 68 194 L 91 194 L 91 218 L 68 218 Z M 68 194 " clip-rule="nonzero"/></clipPath><clipPath id="e3c22444cc"><path d="M 62.816406 195.472656 L 100.351562 192.972656 L 104.128906 249.636719 L 66.589844 252.136719 Z M 62.816406 195.472656 " clip-rule="nonzero"/></clipPath><clipPath id="4e73678d3a"><path d="M 62.816406 195.472656 L 100.351562 192.972656 L 104.128906 249.636719 L 66.589844 252.136719 Z M 62.816406 195.472656 " clip-rule="nonzero"/></clipPath><clipPath id="229c32bbf7"><path d="M 72 198 L 87 198 L 87 214 L 72 214 Z M 72 198 " clip-rule="nonzero"/></clipPath><clipPath id="1c9ea5bdd0"><path d="M 62.816406 195.472656 L 100.351562 192.972656 L 104.128906 249.636719 L 66.589844 252.136719 Z M 62.816406 195.472656 " clip-rule="nonzero"/></clipPath><clipPath id="de34bba9a2"><path d="M 62.816406 195.472656 L 100.351562 192.972656 L 104.128906 249.636719 L 66.589844 252.136719 Z M 62.816406 195.472656 " clip-rule="nonzero"/></clipPath><clipPath id="0226e1d5bf"><path d="M 64 200 L 104 200 L 104 251 L 64 251 Z M 64 200 " clip-rule="nonzero"/></clipPath><clipPath id="5d3dac2be0"><path d="M 62.816406 195.472656 L 100.351562 192.972656 L 104.128906 249.636719 L 66.589844 252.136719 Z M 62.816406 195.472656 " clip-rule="nonzero"/></clipPath><clipPath id="8af62bd191"><path d="M 62.816406 195.472656 L 100.351562 192.972656 L 104.128906 249.636719 L 66.589844 252.136719 Z M 62.816406 195.472656 " clip-rule="nonzero"/></clipPath><clipPath id="4aa63d9b02"><path d="M 66 202 L 102 202 L 102 249 L 66 249 Z M 66 202 " clip-rule="nonzero"/></clipPath><clipPath id="9d50aff1ea"><path d="M 62.816406 195.472656 L 100.351562 192.972656 L 104.128906 249.636719 L 66.589844 252.136719 Z M 62.816406 195.472656 " clip-rule="nonzero"/></clipPath><clipPath id="8cb9c4a04e"><path d="M 62.816406 195.472656 L 100.351562 192.972656 L 104.128906 249.636719 L 66.589844 252.136719 Z M 62.816406 195.472656 " clip-rule="nonzero"/></clipPath></defs><g clip-path="url(#eb24ac9eae)"><path fill="#77bd20" d="M 140 162.679688 C 142.871094 162.679688 145.207031 165.015625 145.207031 167.882812 C 145.207031 170.75 142.871094 173.085938 140 173.085938 C 137.128906 173.085938 134.792969 170.75 134.792969 167.882812 C 134.792969 165.015625 137.109375 162.679688 140 162.679688 M 122.1875 162.679688 C 125.058594 162.679688 127.394531 165.015625 127.394531 167.882812 C 127.394531 170.75 125.058594 173.085938 122.1875 173.085938 C 119.320312 173.085938 116.980469 170.75 116.980469 167.882812 C 116.980469 165.015625 119.320312 162.679688 122.1875 162.679688 Z M 155.046875 166.941406 C 155.046875 147.496094 139.261719 131.71875 119.8125 131.71875 C 114.132812 131.71875 108.785156 133.050781 104.046875 135.425781 C 101.753906 136.574219 99.621094 137.96875 97.632812 139.566406 C 94.332031 142.25 91.503906 145.527344 89.351562 149.214844 C 104.292969 152.882812 115.363281 166.347656 115.363281 182.410156 C 115.363281 189.171875 113.394531 195.480469 110.011719 200.789062 C 113.128906 201.691406 116.40625 202.179688 119.8125 202.179688 L 119.8125 215.746094 L 129.996094 206.359375 C 131.472656 205.03125 132.949219 203.675781 134.40625 202.285156 C 145.042969 192.285156 155.046875 180.871094 155.046875 166.941406 Z M 155.046875 166.941406 " fill-opacity="1" fill-rule="evenodd"/></g><path fill="#1a7727" d="M 104.398438 162.679688 C 107.265625 162.679688 109.601562 165.015625 109.601562 167.882812 C 109.601562 170.75 107.265625 173.085938 104.398438 173.085938 C 101.527344 173.085938 99.191406 170.75 99.191406 167.882812 C 99.191406 165.015625 101.527344 162.679688 104.398438 162.679688 M 89.351562 149.214844 C 86.320312 154.421875 84.578125 160.484375 84.578125 166.941406 C 84.578125 182.984375 95.316406 196.546875 110.011719 200.789062 C 113.394531 195.480469 115.363281 189.171875 115.363281 182.410156 C 115.363281 166.347656 104.273438 152.882812 89.351562 149.214844 Z M 89.351562 149.214844 " fill-opacity="1" fill-rule="evenodd"/><g clip-path="url(#ffeaebb739)"><path fill="#39a650" d="M 84.554688 166.941406 C 84.554688 160.484375 86.296875 154.421875 89.332031 149.214844 C 86.707031 148.582031 83.960938 148.234375 81.152344 148.234375 C 62.277344 148.234375 46.964844 163.539062 46.964844 182.410156 C 46.964844 201.28125 62.277344 216.585938 81.152344 216.585938 C 93.265625 216.585938 103.925781 210.273438 109.992188 200.769531 C 95.316406 196.546875 84.554688 183.003906 84.554688 166.941406 " fill-opacity="1" fill-rule="evenodd"/></g><g clip-path="url(#b8b7caa010)"><g clip-path="url(#bc171caea5)"><g clip-path="url(#be75b4d090)"><path fill="#ffffff" d="M 85.710938 191.257812 C 77.789062 187.691406 68.445312 191.234375 64.878906 199.15625 C 61.3125 207.078125 64.851562 216.421875 72.773438 219.992188 C 80.695312 223.558594 90.042969 220.015625 93.609375 212.09375 C 97.175781 204.171875 93.632812 194.824219 85.710938 191.257812 Z M 73.636719 218.074219 C 66.773438 214.984375 63.703125 206.882812 66.792969 200.019531 C 69.882812 193.152344 77.984375 190.082031 84.847656 193.175781 C 91.714844 196.265625 94.785156 204.363281 91.695312 211.230469 C 88.601562 218.09375 80.503906 221.164062 73.636719 218.074219 Z M 73.636719 218.074219 " fill-opacity="1" fill-rule="nonzero"/></g></g></g><g clip-path="url(#e12f0e07d6)"><g clip-path="url(#e3c22444cc)"><g clip-path="url(#4e73678d3a)"><path fill="#ffffff" d="M 80.085938 217.03125 C 73.859375 217.445312 68.453125 212.71875 68.039062 206.488281 C 67.625 200.261719 72.351562 194.855469 78.582031 194.441406 C 84.8125 194.027344 90.214844 198.753906 90.632812 204.984375 C 91.046875 211.210938 86.316406 216.617188 80.085938 217.03125 M 78.734375 196.730469 C 73.769531 197.058594 69.996094 201.371094 70.328125 206.335938 C 70.660156 211.300781 74.96875 215.074219 79.933594 214.742188 C 84.902344 214.414062 88.671875 210.101562 88.339844 205.136719 C 88.011719 200.167969 83.703125 196.398438 78.734375 196.730469 " fill-opacity="1" fill-rule="nonzero"/></g></g></g><g clip-path="url(#229c32bbf7)"><g clip-path="url(#1c9ea5bdd0)"><g clip-path="url(#de34bba9a2)"><path fill="#ffffff" d="M 79.816406 213.003906 C 75.804688 213.269531 72.332031 210.234375 72.066406 206.21875 C 71.796875 202.207031 74.835938 198.734375 78.851562 198.46875 C 82.863281 198.199219 86.332031 201.238281 86.601562 205.25 C 86.867188 209.265625 83.832031 212.738281 79.816406 213.003906 " fill-opacity="1" fill-rule="nonzero"/></g></g></g><g clip-path="url(#0226e1d5bf)"><g clip-path="url(#5d3dac2be0)"><g clip-path="url(#8af62bd191)"><path fill="#1a7727" d="M 69.046875 224.378906 C 68.699219 224.402344 68.371094 224.527344 68.09375 224.746094 L 67.550781 225.171875 C 67.1875 225.457031 66.953125 225.867188 66.898438 226.328125 C 66.84375 226.785156 66.972656 227.238281 67.257812 227.605469 C 67.304688 227.667969 67.34375 227.734375 67.375 227.808594 C 67.46875 228.015625 76.785156 248.835938 89.441406 248.703125 C 89.785156 248.699219 90.128906 248.6875 90.464844 248.664062 C 93.84375 248.4375 96.808594 247.242188 98.820312 245.296875 C 100.714844 243.453125 101.667969 241.050781 101.5 238.527344 C 101.492188 238.386719 101.476562 238.246094 101.460938 238.105469 C 101.457031 238.070312 101.457031 238.023438 101.457031 237.984375 C 101.457031 237.933594 101.457031 237.882812 101.453125 237.832031 L 100.089844 217.34375 C 100.027344 216.390625 99.195312 215.667969 98.246094 215.730469 L 97.554688 215.777344 C 96.601562 215.839844 95.875 216.667969 95.9375 217.621094 C 95.972656 218.140625 95.582031 218.589844 95.058594 218.625 C 94.539062 218.660156 94.089844 218.265625 94.054688 217.746094 C 93.992188 216.792969 93.164062 216.066406 92.210938 216.132812 L 91.519531 216.175781 C 90.566406 216.242188 89.84375 217.070312 89.90625 218.023438 C 89.941406 218.542969 89.546875 218.992188 89.023438 219.027344 C 88.507812 219.0625 88.054688 218.667969 88.019531 218.148438 C 87.957031 217.195312 87.128906 216.46875 86.175781 216.535156 L 85.484375 216.578125 C 84.53125 216.644531 83.808594 217.46875 83.871094 218.425781 C 83.90625 218.945312 83.511719 219.394531 82.992188 219.429688 C 82.472656 219.464844 82.019531 219.070312 81.984375 218.550781 L 81.035156 204.3125 C 80.972656 203.355469 80.148438 202.632812 79.191406 202.695312 L 78.503906 202.742188 C 77.546875 202.804688 76.824219 203.632812 76.890625 204.585938 L 78.765625 232.753906 C 78.792969 233.167969 78.546875 233.550781 78.15625 233.699219 C 77.773438 233.847656 77.335938 233.726562 77.078125 233.398438 L 70.527344 225.039062 C 70.175781 224.585938 69.621094 224.339844 69.046875 224.378906 Z M 90.589844 250.546875 C 90.21875 250.574219 89.839844 250.589844 89.460938 250.589844 C 83.652344 250.652344 77.683594 246.832031 72.1875 239.539062 C 68.371094 234.472656 66.050781 229.46875 65.691406 228.671875 C 65.148438 227.925781 64.910156 227.015625 65.023438 226.097656 C 65.140625 225.136719 65.625 224.28125 66.386719 223.683594 L 66.929688 223.257812 C 67.503906 222.804688 68.195312 222.542969 68.921875 222.496094 C 70.121094 222.414062 71.277344 222.929688 72.015625 223.875 L 76.675781 229.820312 L 75.003906 204.714844 C 74.871094 202.722656 76.382812 200.988281 78.375 200.855469 L 79.066406 200.8125 C 81.0625 200.679688 82.789062 202.191406 82.921875 204.1875 L 83.660156 215.25 C 84.15625 214.933594 84.734375 214.734375 85.359375 214.695312 L 86.046875 214.648438 C 87.105469 214.578125 88.089844 214.96875 88.800781 215.652344 C 89.414062 214.882812 90.339844 214.363281 91.394531 214.292969 L 92.085938 214.246094 C 93.140625 214.175781 94.125 214.570312 94.835938 215.25 C 95.449219 214.480469 96.371094 213.960938 97.429688 213.890625 L 98.117188 213.84375 C 100.113281 213.710938 101.839844 215.222656 101.972656 217.21875 L 103.339844 237.707031 C 103.34375 237.800781 103.347656 237.886719 103.347656 237.960938 C 103.363281 238.109375 103.375 238.253906 103.386719 238.402344 C 103.589844 241.488281 102.4375 244.417969 100.132812 246.652344 C 97.804688 248.910156 94.417969 250.292969 90.589844 250.546875 " fill-opacity="1" fill-rule="nonzero"/></g></g></g><g clip-path="url(#4aa63d9b02)"><g clip-path="url(#9d50aff1ea)"><g clip-path="url(#8cb9c4a04e)"><path fill="#77bd20" d="M 69.046875 224.378906 C 68.699219 224.402344 68.371094 224.527344 68.09375 224.746094 L 67.550781 225.171875 C 67.1875 225.457031 66.953125 225.867188 66.898438 226.328125 C 66.84375 226.785156 66.972656 227.238281 67.257812 227.605469 C 67.304688 227.667969 67.34375 227.734375 67.375 227.808594 C 67.46875 228.015625 76.785156 248.835938 89.441406 248.703125 C 89.785156 248.699219 90.128906 248.6875 90.464844 248.664062 C 93.84375 248.4375 96.808594 247.242188 98.820312 245.296875 C 100.714844 243.453125 101.667969 241.050781 101.5 238.527344 C 101.492188 238.386719 101.476562 238.246094 101.460938 238.105469 C 101.457031 238.070312 101.457031 238.023438 101.457031 237.984375 C 101.457031 237.933594 101.457031 237.882812 101.453125 237.832031 L 100.089844 217.34375 C 100.027344 216.390625 99.195312 215.667969 98.246094 215.730469 L 97.554688 215.777344 C 96.601562 215.839844 95.875 216.667969 95.9375 217.621094 C 95.972656 218.140625 95.582031 218.589844 95.058594 218.625 C 94.539062 218.660156 94.089844 218.265625 94.054688 217.746094 C 93.992188 216.792969 93.164062 216.066406 92.210938 216.132812 L 91.519531 216.175781 C 90.566406 216.242188 89.84375 217.070312 89.90625 218.023438 C 89.941406 218.542969 89.546875 218.992188 89.023438 219.027344 C 88.507812 219.0625 88.054688 218.667969 88.019531 218.148438 C 87.957031 217.195312 87.128906 216.46875 86.175781 216.535156 L 85.484375 216.578125 C 84.53125 216.644531 83.808594 217.46875 83.871094 218.425781 C 83.90625 218.945312 83.511719 219.394531 82.992188 219.429688 C 82.472656 219.464844 82.019531 219.070312 81.984375 218.550781 L 81.035156 204.3125 C 80.972656 203.355469 80.148438 202.632812 79.191406 202.695312 L 78.503906 202.742188 C 77.546875 202.804688 76.824219 203.632812 76.890625 204.585938 L 78.765625 232.753906 C 78.792969 233.167969 78.546875 233.550781 78.15625 233.699219 C 77.773438 233.847656 77.335938 233.726562 77.078125 233.398438 L 70.527344 225.039062 C 70.175781 224.585938 69.621094 224.339844 69.046875 224.378906 " fill-opacity="1" fill-rule="nonzero"/></g></g></g><g fill="#1a7727" fill-opacity="1"><g transform="translate(159.8829, 199.124987)"><g><path d="M 12.34375 -21.890625 C 13.945312 -21.890625 15.53125 -21.554688 17.09375 -20.890625 C 18.65625 -20.234375 19.984375 -19.347656 21.078125 -18.234375 L 17.890625 -14.453125 C 17.179688 -15.316406 16.335938 -16 15.359375 -16.5 C 14.378906 -17.007812 13.40625 -17.265625 12.4375 -17.265625 C 10.71875 -17.265625 9.28125 -16.660156 8.125 -15.453125 C 6.96875 -14.242188 6.390625 -12.75 6.390625 -10.96875 C 6.390625 -9.15625 6.96875 -7.640625 8.125 -6.421875 C 9.28125 -5.203125 10.71875 -4.59375 12.4375 -4.59375 C 13.34375 -4.59375 14.285156 -4.816406 15.265625 -5.265625 C 16.242188 -5.722656 17.117188 -6.34375 17.890625 -7.125 L 21.109375 -3.71875 C 19.929688 -2.519531 18.539062 -1.554688 16.9375 -0.828125 C 15.332031 -0.109375 13.738281 0.25 12.15625 0.25 C 8.882812 0.25 6.164062 -0.8125 4 -2.9375 C 1.832031 -5.070312 0.75 -7.726562 0.75 -10.90625 C 0.75 -14.03125 1.851562 -16.640625 4.0625 -18.734375 C 6.269531 -20.835938 9.03125 -21.890625 12.34375 -21.890625 Z M 12.34375 -21.890625 "/></g></g></g><g fill="#1a7727" fill-opacity="1"><g transform="translate(181.332229, 199.124987)"><g><path d="M 7.65625 0 L 2.296875 0 L 2.296875 -23 L 7.65625 -23 Z M 7.65625 0 "/></g></g></g><g fill="#1a7727" fill-opacity="1"><g transform="translate(191.281985, 199.124987)"><g><path d="M 2.796875 -23.53125 C 3.328125 -24.0625 4.003906 -24.328125 4.828125 -24.328125 C 5.660156 -24.328125 6.335938 -24.0625 6.859375 -23.53125 C 7.390625 -23.007812 7.65625 -22.335938 7.65625 -21.515625 C 7.65625 -20.691406 7.390625 -20.007812 6.859375 -19.46875 C 6.335938 -18.925781 5.660156 -18.65625 4.828125 -18.65625 C 4.003906 -18.65625 3.328125 -18.925781 2.796875 -19.46875 C 2.273438 -20.007812 2.015625 -20.691406 2.015625 -21.515625 C 2.015625 -22.335938 2.273438 -23.007812 2.796875 -23.53125 Z M 7.46875 0 L 2.140625 0 L 2.140625 -16.703125 L 7.46875 -16.703125 Z M 7.46875 0 "/></g></g></g><g fill="#1a7727" fill-opacity="1"><g transform="translate(200.921789, 199.124987)"><g><path d="M 9.421875 -16.890625 C 11.078125 -16.890625 12.550781 -16.5625 13.84375 -15.90625 C 15.132812 -15.257812 16.140625 -14.335938 16.859375 -13.140625 L 13.015625 -10.8125 C 12.191406 -11.976562 11.066406 -12.5625 9.640625 -12.5625 C 8.609375 -12.5625 7.765625 -12.171875 7.109375 -11.390625 C 6.460938 -10.617188 6.140625 -9.601562 6.140625 -8.34375 C 6.140625 -7.0625 6.457031 -6.03125 7.09375 -5.25 C 7.738281 -4.476562 8.585938 -4.09375 9.640625 -4.09375 C 11.210938 -4.09375 12.347656 -4.722656 13.046875 -5.984375 L 16.953125 -3.6875 C 16.273438 -2.445312 15.28125 -1.488281 13.96875 -0.8125 C 12.65625 -0.144531 11.117188 0.1875 9.359375 0.1875 C 6.773438 0.1875 4.691406 -0.59375 3.109375 -2.15625 C 1.535156 -3.71875 0.75 -5.769531 0.75 -8.3125 C 0.75 -10.875 1.546875 -12.941406 3.140625 -14.515625 C 4.742188 -16.097656 6.835938 -16.890625 9.421875 -16.890625 Z M 9.421875 -16.890625 "/></g></g></g><g fill="#1a7727" fill-opacity="1"><g transform="translate(218.341618, 199.124987)"><g><path d="M 9.453125 -6.453125 L 7.65625 -4.5625 L 7.65625 0 L 2.296875 0 L 2.296875 -23 L 7.65625 -23 L 7.65625 -10.84375 L 13.171875 -16.703125 L 19.25 -16.703125 L 13.109375 -10.296875 L 19.4375 0 L 13.078125 0 Z M 9.453125 -6.453125 "/></g></g></g><g fill="#000000" fill-opacity="1"><g transform="translate(241.627913, 199.124987)"><g><path d="M 9.484375 -21.953125 C 11.648438 -21.953125 13.425781 -21.425781 14.8125 -20.375 C 16.195312 -19.332031 16.890625 -17.96875 16.890625 -16.28125 C 16.890625 -14.25 15.523438 -11.835938 12.796875 -9.046875 L 8.40625 -4.375 L 17.546875 -4.375 L 17.546875 0 L 1.296875 0 L 1.296875 -3.5625 L 9.046875 -11.78125 C 10.429688 -13.226562 11.125 -14.46875 11.125 -15.5 C 11.125 -16.125 10.90625 -16.609375 10.46875 -16.953125 C 10.039062 -17.304688 9.445312 -17.484375 8.6875 -17.484375 C 6.882812 -17.484375 4.910156 -16.5625 2.765625 -14.71875 L 0.6875 -18.6875 C 3.570312 -20.863281 6.503906 -21.953125 9.484375 -21.953125 Z M 9.484375 -21.953125 "/></g></g></g><g fill="#000000" fill-opacity="1"><g transform="translate(260.225603, 199.124987)"><g><path d="M 16.578125 -11.03125 L 21.359375 -11.03125 L 21.359375 -2.578125 C 20.179688 -1.742188 18.757812 -1.0625 17.09375 -0.53125 C 15.425781 -0.0078125 13.84375 0.25 12.34375 0.25 C 9.03125 0.25 6.269531 -0.804688 4.0625 -2.921875 C 1.851562 -5.046875 0.75 -7.6875 0.75 -10.84375 C 0.75 -13.988281 1.882812 -16.613281 4.15625 -18.71875 C 6.425781 -20.832031 9.273438 -21.890625 12.703125 -21.890625 C 14.316406 -21.890625 15.921875 -21.597656 17.515625 -21.015625 C 19.109375 -20.441406 20.460938 -19.65625 21.578125 -18.65625 L 18.46875 -14.90625 C 17.6875 -15.632812 16.78125 -16.207031 15.75 -16.625 C 14.71875 -17.050781 13.691406 -17.265625 12.671875 -17.265625 C 10.898438 -17.265625 9.410156 -16.648438 8.203125 -15.421875 C 6.992188 -14.191406 6.390625 -12.664062 6.390625 -10.84375 C 6.390625 -9.007812 7 -7.472656 8.21875 -6.234375 C 9.4375 -4.992188 10.941406 -4.375 12.734375 -4.375 C 13.898438 -4.375 15.179688 -4.722656 16.578125 -5.421875 Z M 16.578125 -11.03125 "/></g></g></g><g fill="#000000" fill-opacity="1"><g transform="translate(283.255737, 199.124987)"><g><path d="M 9.890625 -16.890625 C 12.617188 -16.890625 14.816406 -16.109375 16.484375 -14.546875 C 18.160156 -12.992188 19 -10.9375 19 -8.375 C 19 -5.8125 18.160156 -3.742188 16.484375 -2.171875 C 14.816406 -0.597656 12.617188 0.1875 9.890625 0.1875 C 7.140625 0.1875 4.925781 -0.597656 3.25 -2.171875 C 1.582031 -3.742188 0.75 -5.8125 0.75 -8.375 C 0.75 -10.9375 1.582031 -12.992188 3.25 -14.546875 C 4.925781 -16.109375 7.140625 -16.890625 9.890625 -16.890625 Z M 9.890625 -12.640625 C 8.773438 -12.640625 7.867188 -12.238281 7.171875 -11.4375 C 6.484375 -10.632812 6.140625 -9.59375 6.140625 -8.3125 C 6.140625 -7.007812 6.484375 -5.957031 7.171875 -5.15625 C 7.867188 -4.363281 8.773438 -3.96875 9.890625 -3.96875 C 10.984375 -3.96875 11.875 -4.363281 12.5625 -5.15625 C 13.257812 -5.957031 13.609375 -7.007812 13.609375 -8.3125 C 13.609375 -9.59375 13.257812 -10.632812 12.5625 -11.4375 C 11.875 -12.238281 10.984375 -12.640625 9.890625 -12.640625 Z M 9.890625 -12.640625 "/></g></g></g></svg>