<?xml version="1.0" encoding="UTF-8"?>
<svg version="1.1" xmlns="http://www.w3.org/2000/svg" width="30" height="30">
<path d="M0 0 C7.92 0 15.84 0 24 0 C24 7.26 24 14.52 24 22 C16.08 22 8.16 22 0 22 C0 14.74 0 7.48 0 0 Z M2 6 C1.979375 8.124375 1.95875 10.24875 1.9375 12.4375 C1.92589844 13.63246094 1.91429687 14.82742187 1.90234375 16.05859375 C1.66098208 18.88873341 1.66098208 18.88873341 3 20 C4.33043625 20.0983721 5.66593344 20.13078592 7 20.1328125 C7.804375 20.13410156 8.60875 20.13539062 9.4375 20.13671875 C10.7059375 20.13091797 10.7059375 20.13091797 12 20.125 C12.845625 20.12886719 13.69125 20.13273437 14.5625 20.13671875 C15.366875 20.13542969 16.17125 20.13414063 17 20.1328125 C18.11375 20.13112061 18.11375 20.13112061 19.25 20.12939453 C21.02825811 20.18942216 21.02825811 20.18942216 22 19 C22.07258946 16.81360547 22.08373783 14.62499611 22.0625 12.4375 C22.041875 10.313125 22.02125 8.18875 22 6 C15.4 6 8.8 6 2 6 Z " fill="#000000" transform="translate(3,4)"/>
<path d="M0 0 C2.625 0.9375 2.625 0.9375 5 2 C5 4.31 5 6.62 5 9 C2.6875 10.125 2.6875 10.125 0 11 C-0.99 10.34 -1.98 9.68 -3 9 C-3 5.89640609 -2.98334755 3.85170789 -2 1 C-1.34 0.67 -0.68 0.34 0 0 Z " fill="#000000" transform="translate(14,11)"/>
</svg>
